<svg width="109" height="109" viewBox="0 0 109 109" fill="none" xmlns="http://www.w3.org/2000/svg">
<line x1="44" y1="41" x2="44" y2="68" stroke="#222222" stroke-width="6" stroke-linecap="round"/>
<line x1="31" y1="54" x2="57" y2="54" stroke="#222222" stroke-width="6" stroke-linecap="round"/>
<path d="M53.3011 24L53.4942 21.0062L53.3011 20.9938L53.1081 21.0062L53.3011 24ZM57.0307 24.2405L57.6064 21.2963L57.4167 21.2592L57.2238 21.2467L57.0307 24.2405ZM60.7015 24.9582L61.6494 22.1119L61.4665 22.051L61.2772 22.014L60.7015 24.9582ZM64.2556 26.1418L65.5589 23.4397L65.3858 23.3562L65.2035 23.2955L64.2556 26.1418ZM67.637 27.7726L69.2727 25.2578L69.1124 25.1536L68.9402 25.0705L67.637 27.7726ZM70.7922 29.825L72.7324 27.5368L72.5873 27.4138L72.428 27.3102L70.7922 29.825ZM73.6716 32.2665L75.8836 30.2398L75.7559 30.1005L75.6118 29.9783L73.6716 32.2665ZM76.2297 35.0586L78.6772 33.3237L78.5686 33.1704L78.4417 33.0319L76.2297 35.0586ZM78.4263 38.1573L81.07 36.7393L80.9817 36.5747L80.8738 36.4224L78.4263 38.1573ZM80.2266 41.5137L83.0251 40.4327L82.9581 40.2594L82.8703 40.0957L80.2266 41.5137ZM81.6023 45.075L84.5123 44.346L84.4674 44.1665L84.4007 43.994L81.6023 45.075ZM82.5316 48.7849L85.5091 48.4179L85.4865 48.2348L85.4417 48.0559L82.5316 48.7849ZM83 52.5849H86V52.4007L85.9775 52.2179L83 52.5849ZM83 56.4151L85.9775 56.7821L86 56.5993V56.4151H83ZM82.5316 60.2151L85.4417 60.9441L85.4865 60.7652L85.5091 60.5821L82.5316 60.2151ZM81.6023 63.925L84.4007 65.006L84.4674 64.8335L84.5123 64.654L81.6023 63.925ZM80.2266 67.4863L82.8703 68.9043L82.9581 68.7406L83.0251 68.5673L80.2266 67.4863ZM78.4263 70.8427L80.8738 72.5776L80.9817 72.4253L81.07 72.2607L78.4263 70.8427ZM76.2297 73.9414L78.4417 75.9681L78.5686 75.8296L78.6772 75.6763L76.2297 73.9414ZM73.6716 76.7335L75.6118 79.0217L75.7559 78.8995L75.8836 78.7602L73.6716 76.7335ZM70.7922 79.175L72.428 81.6898L72.5873 81.5862L72.7324 81.4632L70.7922 79.175ZM67.637 81.2274L68.9402 83.9295L69.1124 83.8464L69.2727 83.7422L67.637 81.2274ZM64.2556 82.8582L65.2035 85.7045L65.3858 85.6438L65.5589 85.5603L64.2556 82.8582ZM60.7015 84.0418L61.2772 86.986L61.4665 86.949L61.6494 86.8881L60.7015 84.0418ZM57.0307 84.7595L57.2238 87.7533L57.4167 87.7408L57.6064 87.7038L57.0307 84.7595ZM53.3011 85L53.1081 87.9938L53.3011 88.0062L53.4942 87.9938L53.3011 85ZM49.5715 84.7595L48.9959 87.7038L49.1856 87.7408L49.3785 87.7533L49.5715 84.7595ZM45.9007 84.0418L44.9528 86.8881L45.1358 86.949L45.3251 86.986L45.9007 84.0418ZM42.3466 82.8582L41.0434 85.5603L41.2164 85.6438L41.3987 85.7045L42.3466 82.8582ZM38.9653 81.2274L37.3295 83.7422L37.4898 83.8464L37.6621 83.9295L38.9653 81.2274ZM35.8101 79.175L33.8699 81.4632L34.0149 81.5862L34.1743 81.6898L35.8101 79.175ZM32.9307 76.7335L30.7187 78.7602L30.8464 78.8995L30.9905 79.0217L32.9307 76.7335ZM30.3725 73.9414L27.9251 75.6763L28.0337 75.8296L28.1606 75.9681L30.3725 73.9414ZM28.176 70.8427L25.5323 72.2607L25.6205 72.4253L25.7285 72.5776L28.176 70.8427ZM29.0194 66.0683C28.2362 64.6082 26.4177 64.0594 24.9577 64.8426C23.4976 65.6257 22.9488 67.4442 23.732 68.9043L29.0194 66.0683ZM23.732 40.0957C22.9488 41.5558 23.4976 43.3743 24.9577 44.1574C26.4177 44.9406 28.2362 44.3918 29.0194 42.9317L23.732 40.0957ZM28.176 38.1573L25.7285 36.4224L25.6205 36.5747L25.5323 36.7393L28.176 38.1573ZM30.3725 35.0586L28.1606 33.032L28.0337 33.1704L27.9251 33.3237L30.3725 35.0586ZM32.9307 32.2665L30.9905 29.9783L30.8464 30.1005L30.7187 30.2398L32.9307 32.2665ZM35.8101 29.825L34.1743 27.3102L34.0149 27.4138L33.8699 27.5368L35.8101 29.825ZM38.9653 27.7726L37.6621 25.0705L37.4898 25.1536L37.3295 25.2578L38.9653 27.7726ZM42.3466 26.1418L41.3987 23.2955L41.2164 23.3562L41.0434 23.4397L42.3466 26.1418ZM45.9007 24.9582L45.3251 22.014L45.1358 22.051L44.9528 22.1119L45.9007 24.9582ZM49.5715 24.2405L49.3785 21.2467L49.1856 21.2592L48.9959 21.2963L49.5715 24.2405ZM53.1081 26.9938L56.8377 27.2343L57.2238 21.2467L53.4942 21.0062L53.1081 26.9938ZM56.4551 27.1848L60.1259 27.9025L61.2772 22.014L57.6064 21.2963L56.4551 27.1848ZM59.7536 27.8045L63.3077 28.9881L65.2035 23.2955L61.6494 22.1119L59.7536 27.8045ZM62.9524 28.844L66.3337 30.4748L68.9402 25.0705L65.5589 23.4397L62.9524 28.844ZM66.0012 30.2875L69.1564 32.3398L72.428 27.3102L69.2727 25.2578L66.0012 30.2875ZM68.852 32.1132L71.7314 34.5546L75.6118 29.9783L72.7324 27.5368L68.852 32.1132ZM71.4596 34.2931L74.0178 37.0852L78.4417 33.0319L75.8836 30.2398L71.4596 34.2931ZM73.7823 36.7935L75.9788 39.8922L80.8738 36.4224L78.6772 33.3237L73.7823 36.7935ZM75.7826 39.5753L77.5829 42.9317L82.8703 40.0957L81.07 36.7393L75.7826 39.5753ZM77.4281 42.5948L78.8038 46.156L84.4007 43.994L83.0251 40.4327L77.4281 42.5948ZM78.6922 45.804L79.6215 49.5139L85.4417 48.0559L84.5123 44.346L78.6922 45.804ZM79.5542 49.1519L80.0225 52.9519L85.9775 52.2179L85.5091 48.4179L79.5542 49.1519ZM80 52.5849V56.4151H86V52.5849H80ZM80.0225 56.0481L79.5542 59.8481L85.5091 60.5821L85.9775 56.7821L80.0225 56.0481ZM79.6215 59.4861L78.6922 63.196L84.5123 64.654L85.4417 60.9441L79.6215 59.4861ZM78.8038 62.844L77.4281 66.4052L83.0251 68.5673L84.4007 65.006L78.8038 62.844ZM77.5829 66.0683L75.7826 69.4247L81.07 72.2607L82.8703 68.9043L77.5829 66.0683ZM75.9788 69.1078L73.7823 72.2065L78.6772 75.6763L80.8738 72.5776L75.9788 69.1078ZM74.0178 71.9148L71.4596 74.7069L75.8836 78.7602L78.4417 75.9681L74.0178 71.9148ZM71.7314 74.4454L68.852 76.8868L72.7324 81.4632L75.6118 79.0217L71.7314 74.4454ZM69.1564 76.6602L66.0012 78.7126L69.2727 83.7422L72.428 81.6898L69.1564 76.6602ZM66.3337 78.5252L62.9524 80.156L65.5589 85.5603L68.9402 83.9295L66.3337 78.5252ZM63.3077 80.0119L59.7536 81.1955L61.6494 86.8881L65.2035 85.7045L63.3077 80.0119ZM60.1259 81.0975L56.4551 81.8152L57.6064 87.7038L61.2772 86.986L60.1259 81.0975ZM56.8377 81.7657L53.1081 82.0062L53.4942 87.9938L57.2238 87.7533L56.8377 81.7657ZM53.4942 82.0062L49.7646 81.7657L49.3785 87.7533L53.1081 87.9938L53.4942 82.0062ZM50.1472 81.8152L46.4764 81.0975L45.3251 86.986L48.9959 87.7038L50.1472 81.8152ZM46.8486 81.1955L43.2945 80.0119L41.3987 85.7045L44.9528 86.8881L46.8486 81.1955ZM43.6499 80.156L40.2686 78.5252L37.6621 83.9295L41.0434 85.5603L43.6499 80.156ZM40.6011 78.7126L37.4458 76.6602L34.1743 81.6898L37.3295 83.7422L40.6011 78.7126ZM37.7502 76.8868L34.8708 74.4454L30.9905 79.0217L33.8699 81.4632L37.7502 76.8868ZM35.1426 74.7069L32.5845 71.9148L28.1606 75.9681L30.7187 78.7602L35.1426 74.7069ZM32.82 72.2065L30.6234 69.1078L25.7285 72.5776L27.9251 75.6763L32.82 72.2065ZM30.8197 69.4247L29.0194 66.0683L23.732 68.9043L25.5323 72.2607L30.8197 69.4247ZM29.0194 42.9317L30.8197 39.5753L25.5323 36.7393L23.732 40.0957L29.0194 42.9317ZM30.6234 39.8922L32.82 36.7935L27.9251 33.3237L25.7285 36.4224L30.6234 39.8922ZM32.5845 37.0852L35.1426 34.2931L30.7187 30.2398L28.1606 33.032L32.5845 37.0852ZM34.8708 34.5546L37.7502 32.1132L33.8699 27.5368L30.9905 29.9783L34.8708 34.5546ZM37.4458 32.3398L40.6011 30.2875L37.3295 25.2578L34.1743 27.3102L37.4458 32.3398ZM40.2686 30.4748L43.6499 28.844L41.0434 23.4397L37.6621 25.0705L40.2686 30.4748ZM43.2945 28.9881L46.8486 27.8045L44.9528 22.1119L41.3987 23.2955L43.2945 28.9881ZM46.4764 27.9025L50.1472 27.1848L48.9959 21.2963L45.3251 22.014L46.4764 27.9025ZM49.7646 27.2343L53.4942 26.9938L53.1081 21.0062L49.3785 21.2467L49.7646 27.2343Z" fill="#222222"/>
</svg>
