<svg width="109" height="109" viewBox="0 0 109 109" fill="none" xmlns="http://www.w3.org/2000/svg">
<path d="M28 51C26.3431 51 25 52.3431 25 54C25 55.6569 26.3431 57 28 57L28 51ZM84.1213 56.1213C85.2929 54.9497 85.2929 53.0503 84.1213 51.8787L65.0294 32.7868C63.8579 31.6152 61.9584 31.6152 60.7868 32.7868C59.6152 33.9584 59.6152 35.8579 60.7868 37.0294L77.7574 54L60.7868 70.9706C59.6152 72.1421 59.6152 74.0416 60.7868 75.2132C61.9584 76.3848 63.8579 76.3848 65.0294 75.2132L84.1213 56.1213ZM28 57L82 57L82 51L28 51L28 57Z" fill="#F2F2F2"/>
</svg>
