<svg width="109" height="109" viewBox="0 0 109 109" fill="none" xmlns="http://www.w3.org/2000/svg">
<mask id="path-1-inside-1" fill="white">
<path d="M31 35H79V84C79 86.7614 76.7614 89 74 89H36C33.2386 89 31 86.7614 31 84V35Z"/>
</mask>
<path d="M31 35H79V84C79 86.7614 76.7614 89 74 89H36C33.2386 89 31 86.7614 31 84V35Z" stroke="#F2F2F2" stroke-width="12" mask="url(#path-1-inside-1)"/>
<mask id="path-2-inside-2" fill="white">
<rect x="26" y="25" width="58" height="16" rx="5"/>
</mask>
<rect x="26" y="25" width="58" height="16" rx="5" stroke="#F2F2F2" stroke-width="12" mask="url(#path-2-inside-2)"/>
<rect x="41" y="20" width="28" height="9" rx="3" stroke="#F2F2F2" stroke-width="4"/>
<line x1="55" y1="51" x2="55" y2="73" stroke="#F2F2F2" stroke-width="4" stroke-linecap="round"/>
<line x1="44" y1="51" x2="44" y2="73" stroke="#F2F2F2" stroke-width="4" stroke-linecap="round"/>
<line x1="66" y1="51" x2="66" y2="73" stroke="#F2F2F2" stroke-width="4" stroke-linecap="round"/>
</svg>
